<svg width="1536" height="766" viewBox="0 0 1536 766" fill="none" xmlns="http://www.w3.org/2000/svg">
<g clip-path="url(#clip0_7_30)">
<path d="M1066.26 609.865L1042.12 585.729C1040.87 584.48 1038.85 584.48 1037.6 585.729L1013.46 609.865C1012.21 611.115 1012.21 613.141 1013.46 614.391L1037.6 638.527C1038.85 639.776 1040.87 639.776 1042.12 638.527L1066.26 614.391C1067.51 613.141 1067.51 611.115 1066.26 609.865Z" fill="url(#paint0_linear_7_30)"/>
<path d="M562.49 372.091L551.176 360.778C550.76 360.361 550.084 360.361 549.668 360.778L538.354 372.091C537.937 372.508 537.937 373.183 538.354 373.6L549.668 384.913C550.084 385.33 550.76 385.33 551.176 384.913L562.49 373.6C562.906 373.183 562.906 372.508 562.49 372.091Z" fill="url(#paint1_linear_7_30)"/>
<path opacity="0.543" fill-rule="evenodd" clip-rule="evenodd" d="M1426.86 291.992L1425.11 321.191C1425.09 321.554 1424.97 321.905 1424.78 322.212C1424.58 322.518 1424.31 322.769 1423.99 322.942C1423.67 323.114 1423.31 323.201 1422.95 323.196C1422.58 323.19 1422.23 323.092 1421.91 322.91L1399.26 309.829C1398.94 309.647 1398.68 309.387 1398.49 309.075C1398.31 308.763 1398.2 308.409 1398.19 308.045C1398.18 307.682 1398.26 307.322 1398.43 306.999C1398.6 306.677 1398.84 306.402 1399.15 306.202L1423.56 290.085C1423.89 289.866 1424.27 289.745 1424.67 289.733C1425.06 289.721 1425.46 289.82 1425.8 290.018C1426.14 290.216 1426.42 290.505 1426.61 290.854C1426.8 291.203 1426.89 291.597 1426.86 291.992Z" stroke="url(#paint2_linear_7_30)" stroke-width="10"/>
<path opacity="0.543" fill-rule="evenodd" clip-rule="evenodd" d="M909.707 167.714L907.077 211.546C907.022 212.453 906.737 213.332 906.247 214.098C905.758 214.864 905.08 215.492 904.28 215.923C903.479 216.353 902.582 216.572 901.673 216.559C900.764 216.545 899.874 216.299 899.086 215.845L865.073 196.208C864.286 195.753 863.628 195.105 863.162 194.324C862.696 193.544 862.437 192.657 862.409 191.749C862.382 190.84 862.588 189.939 863.006 189.133C863.425 188.326 864.043 187.639 864.802 187.138L901.445 162.944C902.272 162.398 903.234 162.094 904.224 162.064C905.214 162.034 906.193 162.281 907.05 162.776C907.908 163.271 908.611 163.996 909.08 164.868C909.55 165.74 909.767 166.726 909.707 167.714Z" stroke="url(#paint3_linear_7_30)" stroke-width="10"/>
<path fill-rule="evenodd" clip-rule="evenodd" d="M0 435.2C41.5488 336.402 102.24 300.849 182.071 328.542C301.821 370.081 344.354 426.255 408.834 328.542C425.551 303.207 419.357 249.065 377.603 246.914C335.85 244.764 367.735 197.51 439.623 188.24C511.511 178.97 420.321 113.507 365.602 94.4822C308.775 74.7254 381.772 22.7147 387.409 2.85229C396.561 -29.3952 267.425 -29.3952 0 2.85229L0 435.2Z" fill="url(#paint4_linear_7_30)"/>
<path fill-rule="evenodd" clip-rule="evenodd" d="M1536 765.867C1442.67 764.773 1373.85 743.272 1329.54 701.361C1263.08 638.497 1263.63 502.548 1121.93 509.981C980.231 517.413 828.808 487.007 882.57 401.372C936.332 315.736 1061.91 326.351 1091.92 186.767C1121.93 47.183 876.2 215.743 835.613 122.929C819.764 86.6838 857.383 81.7974 799.055 41.0198C779.692 27.4838 770.329 7.86777 774.189 0.243233C776.049 -3.43143 782.641 1.92643 789.517 0.243233C811.347 -5.10397 857.528 0.243233 904.334 0.243233H1536V765.867Z" fill="url(#paint5_linear_7_30)"/>
<path fill-rule="evenodd" clip-rule="evenodd" d="M555.089 631.712C564.369 629.771 567.258 640.008 584.182 640.008C601.106 640.008 616.156 630.339 637.1 638.865C658.045 647.392 674.991 673.222 653.533 668.242C640.858 665.3 625.183 656.331 603.595 673.407C582.007 690.482 569.09 657.876 552.917 662.88C536.743 667.885 545.733 633.668 555.089 631.712Z" fill="url(#paint6_linear_7_30)"/>
</g>
<defs>
<linearGradient id="paint0_linear_7_30" x1="1267" y1="8211.21" x2="1039.86" y2="3449.61" gradientUnits="userSpaceOnUse">
<stop stop-color="white" stop-opacity="0"/>
<stop offset="1" stop-color="#C9F0FF"/>
</linearGradient>
<linearGradient id="paint1_linear_7_30" x1="1366.65" y1="-4579.72" x2="1016.45" y2="2639.16" gradientUnits="userSpaceOnUse">
<stop stop-color="white" stop-opacity="0"/>
<stop offset="1" stop-color="#DEF5FE"/>
</linearGradient>
<linearGradient id="paint2_linear_7_30" x1="-12883.1" y1="3918.96" x2="2389.06" y2="2602.94" gradientUnits="userSpaceOnUse">
<stop stop-color="white" stop-opacity="0"/>
<stop offset="1" stop-color="#C9F0FF"/>
</linearGradient>
<linearGradient id="paint3_linear_7_30" x1="-7011.35" y1="4138.35" x2="2488" y2="3958.87" gradientUnits="userSpaceOnUse">
<stop stop-color="white" stop-opacity="0"/>
<stop offset="1" stop-color="#C9F0FF"/>
</linearGradient>
<linearGradient id="paint4_linear_7_30" x1="-9262.07" y1="-3111.15" x2="53806" y2="46903.7" gradientUnits="userSpaceOnUse">
<stop stop-color="white" stop-opacity="0"/>
<stop offset="1" stop-color="#C9F0FF"/>
</linearGradient>
<linearGradient id="paint5_linear_7_30" x1="92244.5" y1="-2.13347" x2="350.834" y2="64359" gradientUnits="userSpaceOnUse">
<stop stop-color="white" stop-opacity="0"/>
<stop offset="1" stop-color="#C9F0FF"/>
</linearGradient>
<linearGradient id="paint6_linear_7_30" x1="-10091.6" y1="4275.76" x2="9790.36" y2="-9125.49" gradientUnits="userSpaceOnUse">
<stop stop-color="white" stop-opacity="0"/>
<stop offset="1" stop-color="#C9F0FF"/>
</linearGradient>
<clipPath id="clip0_7_30">
<rect width="1536" height="765.867" fill="white"/>
</clipPath>
</defs>
</svg>
