<svg width="32" height="32" viewBox="0 0 32 32" fill="none" xmlns="http://www.w3.org/2000/svg">
<path d="M23.6591 11.242C23.0867 11.4952 22.4798 11.6615 21.8583 11.7355C22.5131 11.3434 23.0031 10.7266 23.2368 10C22.6218 10.366 21.9476 10.6225 21.2456 10.7613C20.7735 10.2562 20.1479 9.92123 19.4658 9.80844C18.7838 9.69566 18.0835 9.81137 17.474 10.1376C16.8645 10.4638 16.3799 10.9823 16.0954 11.6124C15.811 12.2424 15.7427 12.9488 15.9011 13.6218C14.6538 13.5594 13.4336 13.2353 12.3196 12.6707C11.2057 12.106 10.223 11.3134 9.43534 10.3443C9.15656 10.8231 9.01006 11.3674 9.01084 11.9215C9.01084 13.009 9.56509 13.9698 10.4058 14.5323C9.90785 14.5165 9.42083 14.3821 8.98534 14.14V14.1783C8.98532 14.9027 9.23587 15.6048 9.69449 16.1655C10.1531 16.7262 10.7916 17.1111 11.5016 17.2548C11.0393 17.3802 10.5546 17.3986 10.0841 17.3088C10.2843 17.9323 10.6745 18.4776 11.2001 18.8683C11.7257 19.259 12.3603 19.4755 13.0151 19.4875C12.3644 19.9986 11.6193 20.3764 10.8224 20.5993C10.0255 20.8222 9.19256 20.8858 8.37109 20.7865C9.80488 21.7085 11.4739 22.1981 13.1786 22.1965C18.9491 22.1965 22.1036 17.4168 22.1036 13.2715C22.1036 13.1365 22.1006 13 22.0946 12.8658C22.7084 12.422 23.2382 11.8717 23.6591 11.242Z" fill="white"/>
<circle cx="16" cy="16" r="15.5" stroke="white"/>
</svg>
