<svg width="32" height="32" viewBox="0 0 32 32" fill="none" xmlns="http://www.w3.org/2000/svg">
<path d="M12.5001 7.66666H19.5001C22.1667 7.66666 24.3334 9.83332 24.3334 12.5V19.5C24.3334 20.7819 23.8242 22.0112 22.9178 22.9177C22.0113 23.8241 20.782 24.3333 19.5001 24.3333H12.5001C9.83341 24.3333 7.66675 22.1667 7.66675 19.5V12.5C7.66675 11.2181 8.17597 9.98873 9.0824 9.08231C9.98882 8.17588 11.2182 7.66666 12.5001 7.66666ZM12.3334 9.33332C11.5378 9.33332 10.7747 9.64939 10.2121 10.212C9.64949 10.7746 9.33341 11.5377 9.33341 12.3333V19.6667C9.33341 21.325 10.6751 22.6667 12.3334 22.6667H19.6667C20.4624 22.6667 21.2255 22.3506 21.7881 21.788C22.3507 21.2254 22.6667 20.4623 22.6667 19.6667V12.3333C22.6667 10.675 21.3251 9.33332 19.6667 9.33332H12.3334ZM20.3751 10.5833C20.6513 10.5833 20.9163 10.6931 21.1117 10.8884C21.307 11.0838 21.4167 11.3487 21.4167 11.625C21.4167 11.9013 21.307 12.1662 21.1117 12.3616C20.9163 12.5569 20.6513 12.6667 20.3751 12.6667C20.0988 12.6667 19.8339 12.5569 19.6385 12.3616C19.4432 12.1662 19.3334 11.9013 19.3334 11.625C19.3334 11.3487 19.4432 11.0838 19.6385 10.8884C19.8339 10.6931 20.0988 10.5833 20.3751 10.5833ZM16.0001 11.8333C17.1051 11.8333 18.165 12.2723 18.9464 13.0537C19.7278 13.8351 20.1667 14.8949 20.1667 16C20.1667 17.1051 19.7278 18.1649 18.9464 18.9463C18.165 19.7277 17.1051 20.1667 16.0001 20.1667C14.895 20.1667 13.8352 19.7277 13.0538 18.9463C12.2724 18.1649 11.8334 17.1051 11.8334 16C11.8334 14.8949 12.2724 13.8351 13.0538 13.0537C13.8352 12.2723 14.895 11.8333 16.0001 11.8333ZM16.0001 13.5C15.337 13.5 14.7012 13.7634 14.2323 14.2322C13.7635 14.7011 13.5001 15.3369 13.5001 16C13.5001 16.663 13.7635 17.2989 14.2323 17.7678C14.7012 18.2366 15.337 18.5 16.0001 18.5C16.6631 18.5 17.299 18.2366 17.7678 17.7678C18.2367 17.2989 18.5001 16.663 18.5001 16C18.5001 15.3369 18.2367 14.7011 17.7678 14.2322C17.299 13.7634 16.6631 13.5 16.0001 13.5Z" fill="white"/>
<circle cx="16" cy="16" r="15.5" stroke="white"/>
</svg>
